<?xml version="1.0" encoding="UTF-8" standalone="no"?>
<svg
   xmlns:dc="http://purl.org/dc/elements/1.1/"
   xmlns:cc="http://creativecommons.org/ns#"
   xmlns:rdf="http://www.w3.org/1999/02/22-rdf-syntax-ns#"
   xmlns:svg="http://www.w3.org/2000/svg"
   xmlns="http://www.w3.org/2000/svg"
   xmlns:sodipodi="http://sodipodi.sourceforge.net/DTD/sodipodi-0.dtd"
   xmlns:inkscape="http://www.inkscape.org/namespaces/inkscape"
   version="1.1"
   id="Layer_1"
   x="0px"
   y="0px"
   width="1920"
   height="1152"
   viewBox="0 0 1920 1152"
   xml:space="preserve"
   sodipodi:docname="3catmax-Halloween-Fall-Leaf-puzzle-with-whimsies.svg"
   inkscape:version="1.0 (4035a4fb49, 2020-05-01)"><metadata
   id="metadata15"><rdf:RDF><cc:Work
       rdf:about=""><dc:format>image/svg+xml</dc:format><dc:type
         rdf:resource="http://purl.org/dc/dcmitype/StillImage" /><dc:title></dc:title></cc:Work></rdf:RDF></metadata><defs
   id="defs13">
	
	
</defs><sodipodi:namedview
   units="px"
   pagecolor="#ffffff"
   bordercolor="#666666"
   borderopacity="1"
   objecttolerance="10"
   gridtolerance="10"
   guidetolerance="10"
   inkscape:pageopacity="0"
   inkscape:pageshadow="2"
   inkscape:window-width="1920"
   inkscape:window-height="1057"
   id="namedview11"
   showgrid="false"
   inkscape:zoom="0.49553504"
   inkscape:cx="621.63852"
   inkscape:cy="798.66682"
   inkscape:window-x="-8"
   inkscape:window-y="-8"
   inkscape:window-maximized="1"
   inkscape:current-layer="layer2"
   inkscape:document-rotation="0"
   inkscape:lockguides="true" />
<style
   type="text/css"
   id="style2">
	.st0{fill:none;stroke:#FBB03B;stroke-width:1.7101;stroke-linecap:round;stroke-linejoin:round;stroke-miterlimit:2.1818;}
	.st1{fill:none;stroke:#ED1C24;stroke-width:1.7101;stroke-linecap:round;stroke-linejoin:round;stroke-miterlimit:2.1818;}
</style>

<g
   inkscape:groupmode="layer"
   id="layer1"
   inkscape:label="snapmarks"
   style="display:inline" /><g
   inkscape:groupmode="layer"
   id="layer2"
   inkscape:label="leaf"
   style="display:inline"><path
     id="path1236"
     style="fill:none;stroke:#f56d31;stroke-width:6;stroke-linecap:butt;stroke-linejoin:miter;stroke-miterlimit:4;stroke-dasharray:none;stroke-opacity:1"
     d="m 907.04939,313.21703 c 0,0 7.77025,26.63096 20.3477,31.32893 12.57744,4.69797 14.9681,-4.63688 25.42946,1.19161 11.05005,6.15649 -4.08609,14.91 -0.0172,27.81852 m 14.42517,119.33529 c 0,0 12.74431,12.95956 1.45281,20.68268 -4.62593,3.16403 -10.27011,10.13512 1.30955,18.70692 m 61.92182,328.63461 c 0,0 -10.258,3.24087 -5.0436,12.92913 3.8479,7.14902 -11.9834,10.56036 -12.6396,4.18715 -1.6408,-15.93731 -27.15617,-9.49826 -15.27078,5.68639 8.78768,11.22697 20.62918,11.97077 34.36928,11.66789 9.4328,-0.20799 14.4886,0.53616 17.8922,3.25254 4.5792,3.65497 3.1723,19.08069 -8.1017,16.86155 -4.8482,-0.95429 -16.7901,-22.60211 -28.2473,11.43136 M 589.24886,507.82183 c 0,0 -7.53518,5.89855 -8.31741,13.51698 -0.44326,4.31711 7.20275,5.30221 12.62616,9.50838 4.51614,3.50254 -0.0817,18.35163 -3.11895,19.55363 -4.51515,1.78689 -15.29043,-1.12438 -16.96619,-3.90881 -3.06773,-5.0973 -2.43247,-8.46172 -5.17598,-12.07953 -3.90555,-5.15013 -17.83291,-6.49084 -25.21576,5.62292 -5.87701,9.64297 0.62292,26.551 0.62292,26.551 m 232.91238,0.54925 c 0,0 -4.11535,4.51131 -15.85607,3.92684 -11.74071,-0.58446 -14.46938,16.01191 -14.46938,16.01191 m -159.077,-315.18883 c 13.593,4.94881 23.27214,6.83174 12.15065,20.92091 -19.8899,25.19741 12.21628,42.53552 13.34341,8.79743 0.38941,-11.65607 14.61484,-16.30103 20.56023,-3.77685 4.85516,10.22755 -13.46858,15.15489 -0.22423,31.54939 m 690.86896,254.40726 c 14.7965,-39.41608 35.0088,-76.01462 65.5844,-105.38719 -23.0189,-6.97539 -23.635,-17.85802 -24.7429,-26.29908 -1.0849,-8.26559 15.8874,-25.82601 19.3624,-28.46538 21.8405,-16.58844 -7.1213,-11.96598 -19.5419,-13.24128 -33.2547,-3.41447 -20.4806,-16.9505 -28.6249,-13.2646 -54.5071,5.14444 -94.4503,26.93061 -136.6447,58.57861 -47.0591,35.29686 -33.9036,-23.00859 -31.4781,-43.29075 6.7001,-55.84908 6.896,-107.99774 46.3553,-148.65265 1.1363,-1.17085 5.6547,-4.27382 -3.9621,-11.06232 -5.6179,-3.9656 -15.4119,-17.24099 -13.1307,-31.60264 -39.1852,-31.44066 -28.1177,-57.85034 -25.9356,-102.32056 0.2476,-5.04592 0.8183,-18.849064 -3.4259,-14.77187 -32.1173,24.95812 -64.6299,49.06252 -107.1507,47.75853 -19.4067,22.9345 -36.9402,41.48755 -68.9806,42.55557 0.30935,35.77529 -43.65714,97.02245 -60.02215,126.68916 -17.98249,32.59888 -46.30192,57.91972 -72.48243,62.56567 -13.26565,-9.77274 -27.08903,-19.25865 -34.3475,-34.00585 -13.14698,-26.71097 -23.39849,-54.75955 -30.44043,-83.81463 -6.09513,0.58116 -12.75759,2.43685 -18.05397,-0.63403 -52.27007,-30.30658 -76.37131,-92.12615 -129.73247,-121.50307 3.21857,44.75968 -10.62375,59.5372 -43.87223,86.60254 -0.28141,2.74078 -0.0865,7.02967 -0.54323,9.49834 -5.56133,30.40365 -21.77572,52.81469 -40.78351,76.19672 9.16677,33.60563 17.45996,66.06985 31.71407,98.26387 8.03007,18.13654 3.4984,38.52079 7.93211,57.75801 7.01205,30.42435 6.99339,66.03419 -28.99983,30.36019 -32.56998,6.34971 -63.88072,4.02419 -96.27557,-3.08806 2.03002,8.07281 1.18565,1.5701 3.90558,13.19489 2.71992,11.62479 0.13434,42.49914 -7.58737,56.57108 42.3733,29.09997 50.32889,61.75543 34.37375,109.36159 2.00113,0.43417 4.01449,0.99663 6.02173,1.49493 18.96141,1.81984 35.87432,12.57691 54.81007,13.16173 M 1050.5397,529.07256 c -3.6838,-0.50529 -6.6664,3.54627 -7.0125,8.40213 -0.3461,4.85586 1.0746,9.82962 3.8391,14.09012 2.7645,4.26049 5.687,8.2196 7.5336,12.88133 1.3718,3.46956 1.6004,7.43156 3.3653,10.66196 1.766,3.2178 4.9656,6.08731 8.7666,4.58455 3.801,-1.50277 4.7003,-5.80634 5.0727,-9.68123 1.4149,-14.77032 1.0504,-29.65983 -1.0539,-44.30873 -0.326,-2.26954 -0.7075,-4.98945 -2.9833,-5.71862 -5.67,-1.82724 -9.2007,5.4586 -11.409,9.64048 -2.9536,-0.31592 -2.4348,-0.0467 -6.1186,-0.55203 z m 208.3076,-60.03777 c -24.7303,6.72267 -54.8901,21.52725 -11.3381,33.82526 13.3034,-13.61319 1.6319,-14.53207 27.2743,-18.01028 12.0857,-14.00502 39.5656,-13.59743 29.5534,-36.61771 -4.0235,-1.40411 -29.5331,5.11152 -29.6654,5.16146 -9.607,4.09557 -9.55,13.93505 -15.8242,15.64127 z M 687.54303,310.70936 c 0.36163,3.76191 -1.22441,6.39619 -4.36327,6.85311 -3.97948,0.5793 -6.19892,-2.78619 -6.42889,-6.19104 -0.20837,-3.08499 1.70008,-7.0913 5.0487,-6.93098 3.08801,0.14785 5.43219,3.03104 5.74346,6.26891 z m -21.78341,-4.61672 c 2.24542,0.41986 4.07846,3.75597 3.64319,7.12891 -0.44784,3.37165 -3.08147,6.10535 -7.05379,5.46308 -2.22499,-0.35973 -4.1497,-3.18731 -3.65057,-6.93484 0.49914,-3.74754 3.48968,-6.32496 7.06117,-5.65715 z m 1.55374,371.91901 c -3.82023,-2.64103 -6.73162,-5.0998 -9.53121,-0.3561 -7.20738,0.27637 -18.32357,-9.51705 -23.2865,-14.27008 -0.38504,-5.65512 -7.72585,-5.81173 -12.69533,-3.3236 -1.56665,0.7793 -11.19716,0.40032 -14.15874,-3.05459 -1.36168,-1.58818 8.87856,-8.26137 12.67305,-9.20577 3.33761,-0.82616 26.14227,-0.79697 25.54301,4.66816 -0.68712,6.32003 3.22256,8.46204 5.1936,9.80787 6.00598,4.12324 6.36304,2.74965 10.25069,-1.57743 1.79375,-2.00108 8.82432,2.2909 10.51933,4.34526 0.11411,0.12606 0.83368,0.54298 0.96648,0.73449 m -66.76319,12.04996 c 4.12336,-1.17746 21.6282,6.41333 22.04548,15.09555 0.24452,5.04355 -17.71114,17.68357 -22.75379,13.58301 -6.62649,-5.3812 -10.60198,-25.44394 0.70831,-28.67856 z M 1112.2247,261.43665 c 3.2304,5.54071 -11.0801,22.77304 -16.0705,21.75245 -8.588,-1.74572 -12.9034,-20.72533 -11.2452,-24.74771 4.5254,-11.03331 23.0575,-4.28994 27.3157,2.99526 z m -0.2559,47.90948 c 2.5769,11.60533 1.574,19.63986 5.5257,16.02015 3.1247,-2.86208 8.078,-8.13453 15.0197,-5.16781 9.0119,3.85157 7.5689,16.45996 -3.8854,20.18723 -6.2049,2.01908 -14.4421,10.24346 -16.7523,17.75067 -2.4503,7.96256 3.0811,15.84987 7.4197,17.02772 10.0277,2.72235 12.6649,-6.84507 16.6834,-15.78528 6.2998,-14.0152 44.493,-0.57715 52.8249,9.10828 M 913.53845,721.7444 c 6.25669,-29.70407 41.26819,-26.14306 35.67863,-8.99449 -4.96504,15.23256 6.04357,34.1997 19.9122,30.42736 20.84887,-5.67286 20.84735,-31.76898 9.30754,-48.32682 -25.34122,-36.33359 -62.6406,-32.68012 -85.11563,4.42296 -4.43768,7.3325 -24.39845,-13.30307 -37.33899,-17.22491 -7.01241,-2.12521 -18.20447,-3.13421 -26.42848,3.76505 -11.55479,9.6935 -13.96564,27.10567 -2.53501,32.12606 6.27955,2.758 10.79293,2.10277 19.76057,-0.83312 23.66888,-7.74887 29.34861,15.43111 25.08176,27.93685 -16.51419,48.40138 -28.6707,69.16547 -60.95763,92.46066 -74.65795,53.86611 -131.78124,56.69544 -170.63296,50.51364 -19.10748,-3.04025 -25.3735,-16.17619 -34.95791,-14.86155 -12.77667,1.75249 -12.73214,48.12046 -3.20789,47.95303 2.53809,-0.0447 24.58071,-6.26006 36.46704,-4.66021 35.55206,4.78515 112.99469,-1.28093 171.46261,-42.06539 56.54751,-39.44488 76.23514,-73.14717 90.26571,-111.73559 4.24582,-11.67733 9.3333,-22.36351 13.23844,-40.90353 z m -8.48234,30.97396 c 18.89088,7.22272 41.52389,26.52858 46.99486,49.99403 4.88019,20.93155 1.4708,54.29326 6.16489,62.09954 42.19964,70.17754 62.79134,66.01756 140.89644,78.95701 2.347,0.3888 20.1163,-0.2469 19.3807,-1.2499 -12.1424,-16.50526 -8.7348,-66.27641 4.0097,-80.13762 41.0795,4.70069 67.32,21.56049 110.5688,23.42846 2.6844,0.11587 14.77,-1.81814 17.2837,-1.67433 1.5381,-24.75653 -18.4969,-17.34769 4.0938,-43.33557 8.5163,-9.79697 28.6539,-21.3737 45.952,-24.15932 5.0438,-0.81224 0.086,-12.73259 1.3761,-17.5194 6.4085,-23.78391 45.1197,-30.3186 58.0038,-40.83671 18.7513,-15.31529 -45.5398,-21.2905 -52.2624,-24.48705 -18.0522,-8.58373 -33.6813,-15.83453 -40.6759,-36.47243 -11.6825,-34.46885 -1.6028,-31.78718 13.384,-58.94886 3.6839,-6.67301 7.6915,-11.30945 10.3307,-18.56842 8.5471,-23.50655 10.5513,-30.61547 34.4709,-35.13452 0,0 -0.011,-0.0137 0,0 -23.4509,-14.89681 -37.707,-39.64874 -50.9142,-63.47986 -0.4731,-0.83629 -1.9798,-0.39385 -2.2065,0.20541 -8.2852,22.15797 -19.4176,54.72116 -45.6897,59.50685 -1.3338,0.2442 -1.3727,-0.73806 -1.3143,-1.43085 0.1929,-2.49576 0.7213,-4.05505 1.4953,-6.6436 1.7003,-5.6697 -3.6655,-4.0227 -5.3998,-1.73601 -4.3946,5.79962 -7.9379,9.24729 -12.3298,3.51109 -4.0671,-5.309 -6.0497,-7.53266 -6.6393,0.43634 -0.095,1.28617 0.9132,4.71836 0.4347,6.40981 -0.2945,1.01157 -2.557,1.8846 -3.4047,0.98443 -16.9099,-18.08751 -26.3474,-40.14673 -35.1677,-63.01922 -0.3423,-0.87367 -1.4511,-1.08915 -2.0466,-0.3626 -18.8129,22.64504 -43.3448,39.56919 -61.7055,62.49661 -0.7555,0.94324 -9.0875,7.83589 -16.4924,36.02181 m 14.1728,-32.99204 c 0.7889,2.21174 5.5342,0.42387 6.9923,-0.13645 13.277,-5.10196 21.5013,-9.50343 31.4774,8.52075 2.3782,4.30978 2.4548,17.67054 1.8737,23.95063 -0.08,0.89388 1.1465,2.07429 2.2502,0.8536 22.8747,-25.52598 31.0222,-3.65003 38.9661,19.58986 0.2946,0.84336 1.8092,1.18945 2.2809,0.18343 4.8669,-10.2741 10.6987,-24.00649 22.0396,-27.91132 0.8824,-0.30326 1.0994,0.43051 1.2815,1.00822 6.3333,19.74582 14.5398,19.26711 23.3457,1.31713 0.1746,-0.3378 0.1804,-0.64214 0.6876,-0.75523 13.6907,-3.15535 19.3762,11.88664 21.8109,22.94853 0.1752,0.76758 1.6696,1.18784 2.2287,0.44482 10.0632,-13.4885 21.2587,-19.73477 37.6381,-12.69152 m -116.6117,-77.97394 c 19.2355,-10.56773 9.53,-28.99892 0.5442,-37.62628 -13.3962,-12.86162 -36.3664,-12.03111 -49.4839,3.89333 -12.5045,15.18034 -42.8986,-0.0617 -53.7746,-17.27859 -12.0383,-19.05667 -29.7903,6.25397 -12.3637,16.8351 4.3535,2.64494 19.3141,-6.44029 5.1777,16.76854 m -130.86265,-8.74792 c -12.61626,-14.64898 -40.62532,-25.37619 -56.00305,-19.4831 -14.12699,5.41377 -7.83212,28.50364 0.75398,29.98142 15.17902,2.61247 17.11119,15.37011 11.3849,23.60246 -5.46011,7.84966 -15.4614,6.32931 -23.14574,-1.21399 -12.41165,-12.18382 -21.62203,-20.07415 -41.85693,-21.96553 -11.00188,-0.95023 -23.68648,0.54402 -30.98713,5.40297 -10.77976,7.17451 -18.3757,16.06345 -17.45678,28.8213 0.79871,11.08919 13.42705,18.34222 26.12614,13.06989 11.5438,-4.79268 6.62676,-15.39537 24.70554,-16.13866 18.07878,-0.74331 28.16908,25.99235 11.54924,41.03369 -6.21375,5.62359 -19.78546,2.80094 -26.28704,7.85029 -22.0435,17.11976 -9.0497,35.39688 0.81483,51.39271 M 777.33564,552.55226 c -22.6308,-2.57176 -38.77662,-18.72715 -18.75995,-40.5242 0.10892,-3.2826 -7.21869,-6.97816 -8.49016,-14.14265 -1.68451,-9.49171 2.20951,-20.75755 0.38111,-20.51015 -13.2068,2.5385 -17.89343,12.40501 -39.1404,-14.55119 -0.83106,-1.06361 -1.62168,-0.29357 -3.3521,0.59598 -16.14722,13.42447 -33.87609,5.80847 -38.56559,5.09992 m 118.29689,211.81081 c -23.32175,-13.30814 -22.19777,-43.66219 -20.4312,-62.22495 2.33423,-24.52731 -22.37559,-37.62988 -31.22802,-28.69844 -11.44334,11.54548 8.57138,19.2585 4.80739,33.93896 -4.18352,16.31671 -37.15151,14.67387 -33.13046,-8.11524 10.97262,-62.18665 -11.48019,-80.18389 -42.79375,-73.29686 -13.34451,3.26797 -20.27946,16.72187 -16.38307,28.14984 m 459.85487,190.509 c -9.0018,-9.08656 -9.714,-19.70193 -29.2231,-29.6757 -12.1433,-6.20803 -18.5804,-5.79643 -20.1177,-14.83462 -1.5361,-9.03124 -5.5045,-17.5455 -14.9441,-18.33756 -17.7409,-1.48858 -28.0975,14.2604 -24.1516,22.48782 8.0285,16.73976 19.7844,2.18869 23.0237,15.29047 2.0899,8.45246 -21.7871,18.73488 -31.8746,27.29945 m 69.2016,-31.38205 c 14.724,-20.02307 20.3137,-41.93207 39.4848,-57.62352 20.2816,-16.60654 46.5044,-15.22884 51.5423,7.7392 2.7335,12.46227 -3.8015,21.73328 -11.3586,29.62213 16.3875,15.46079 29.5435,37.3719 3.3493,55.55803 M 950.24632,460.51703 c -33.59377,11.1233 -51.82293,1.29459 -64.14573,-15.59868 -1.03534,-2.29156 -2.92459,-2.70153 -3.74905,-1.97306 -18.79522,14.4554 -35.8563,5.08314 -55.48033,0.80673 -12.68926,-2.76394 -5.65841,32.2676 -10.43123,36.03083 -5.2783,4.16177 -16.76716,15.24628 -13.84892,17.01971 8.38299,8.48369 15.18461,19.07326 13.21672,31.82145 m 354.34382,-85.54246 c -27.6954,-7.0016 -39.6208,4.36613 -44.7962,-14.08203 -5.7802,-20.60395 -20.1602,-14.84733 -29.0215,-4.55367 -4.1078,4.7718 -9.3533,41.12871 17.3639,36.09712 17.6719,-3.32812 18.1119,28.2554 20.8341,43.11573 m -83.7625,33.69566 c -1.7421,-1.84323 -2.939,-3.92267 -4.8384,-5.71852 -18.0324,-16.93227 -37.4542,-18.55394 -60.73687,-9.64116 -23.06382,8.82901 -44.20519,47.15897 -34.7329,65.8368 9.97298,17.89286 31.65496,11.82976 35.37203,5.8023 7.18228,-11.64653 -0.95049,-21.13875 4.96328,-29.9439 9.58226,-14.2673 30.97576,-10.71676 34.77766,10.13966 7.054,38.69716 -16.743,54.65597 -22.8705,59.28902 -21.62878,16.35391 -89.12287,9.85352 -91.54801,-49.25522 -2.37027,-57.77085 33.20507,-79.57717 71.48553,-99.1276 21.92478,-11.19732 -35.17838,-14.65257 -32.53059,-26.20902 16.62179,-72.41401 61.91557,51.49794 67.90317,-24.14237 2.3119,-6.30567 2.4315,-15.39014 9.6527,-18.5237 14.1165,-6.11744 22.7199,0.267 21.6249,11.78069 -0.8523,8.96595 -10.286,21.57865 -10.081,30.3437 0.3098,13.24083 23.967,-17.36755 19.8338,28.60217 m 186.1861,-80.95071 c 0.073,-0.0942 -0.082,-0.44038 0.1169,-0.39457 -3.5787,13.56989 9.8272,22.22959 12.2637,33.04442 2.9678,13.17395 -6.8452,22.75667 -16.6128,12.0304 -13.2634,8.01744 -1.5648,19.82467 7.8799,26.21944 m 139.4149,-23.03794 c -36.3672,4.87676 -30.4296,26.3612 -36.27,41.30154 -4.1467,10.60805 -14.0801,13.57723 -18.4088,8.21252 -6.0322,-7.4758 7.5749,-18.1916 2.6244,-24.54481 -7.4889,-9.61094 -24.8622,0.0231 -22.4848,10.99644 1.7578,8.11243 -1.3817,20.00366 -8.1295,23.83982 -12.6096,7.16859 -21.3502,-6.35778 -9.5179,-24.38944 8.2328,-12.54613 -0.5442,-14.8647 -10.3917,-21.66929 M 767.49118,647.48497 c -26.83578,10.52128 -19.25952,36.78957 -39.64453,36.83094 -6.79919,0.0134 -4.2417,-14.49989 -9.08537,-19.17716 -7.30497,-7.06441 -17.49446,1.34185 -16.70977,11.39581 0.49038,6.23766 5.98481,12.62068 5.14494,19.19182 -9.54944,10.83512 -26.40249,7.41495 -19.61306,-10.81832 2.78312,-10.89458 -6.39056,-14.23774 -14.62495,-18.93282 M 1051.2325,766.9054 c 3.1384,0.82105 3.7591,7.72697 5.7372,9.63274 2.0463,1.97156 5.4897,5.3519 11.1563,5.81584 1.9277,0.15782 5.6189,-2.23044 10.1567,-0.71619 2.9134,0.97224 -1.4013,4.25533 -3.4338,13.96994 -0.8698,4.15745 -4.0177,12.85843 -12.7689,17.69316 -3.7526,2.07315 -5.0208,4.05167 -5.1572,7.42117 -0.1642,4.05938 7.6421,14.55246 14.8227,14.32051 17.6256,-0.56935 43.913,-19.15981 50.9113,-35.90353 2.0741,-4.9622 -6.5382,0.72605 -13.1054,-2.17016 -3.0478,-1.34407 -3.7221,-7.38837 -0.9061,-10.99375 5.4921,-7.03187 16.009,-8.63084 22.1866,-6.46743 15.3558,5.37768 13.7155,22.23704 5.1321,31.53363 -25.7865,27.92895 -43.3389,41.73007 -64.078,74.40736 -4.2109,6.63477 -4.09,7.24051 -10.366,1.89336 -21.7277,-18.29616 -40.9804,-36.79419 -60.2832,-56.31628 41.0268,-25.19778 32.895,-36.79438 43.0354,-50.93579 1.4787,-2.06222 3.6786,-14.04311 6.9603,-13.18458 z M 666.83859,478.57146 c -5.33138,-2.40234 -10.07913,-5.29105 -14.25258,-9.44212 -12.46535,-17.07214 -15.98834,-32.26055 -12.76863,-53.22344 2.93972,-13.03837 17.55502,-59.54956 -2.4839,-52.71647 -24.52759,8.36369 -12.80353,-34.49855 1.74113,-37.22076 20.01543,-3.74616 19.08161,-93.46137 65.80949,-2.23916 6.93486,13.53821 26.9963,12.68279 27.0566,29.32529 0.0685,18.90678 -34.32075,2.53452 -32.09835,18.09138 2.26126,15.82904 36.997,26.69744 30.46077,42.3619 -5.09123,12.20141 -22.35347,-10.15855 -25.12465,5.98343 -4.30596,25.08207 -26.10696,10.56986 -32.91522,21.8397 -5.53341,27.17805 2.40641,38.12756 -19.93564,60.98064 -1.85618,9.74695 15.37997,20.32402 12.46248,39.51494 M 639.07115,423.76045 c -14.27858,2.32001 -18.54597,3.19987 -15.72218,-14.52581 5.04658,-31.70159 -33.59482,-32.79782 -17.06196,-3.36539 7.45588,13.26722 -8.18376,17.58191 -17.97569,19.26995 m 338.76744,197.59898 c -13.66467,16.24965 -25.80971,10.28594 -27.93344,-8.50675 -3.80518,-33.60143 -33.88744,-4.8824 -16.85021,4.21131 10.07017,5.37499 7.46173,22.35011 -4.20353,24.13907 m 246.78012,229.4954 c -6.3698,-13.94347 -1.1166,-34.99545 12.4181,-32.40006 9.0845,1.74199 12.7902,11.07611 22.731,9.66056 12.7664,-1.81782 12.9239,-19.26418 6.5897,-24.90031 -8.3357,-7.41701 -17.3657,2.32889 -27.9308,-16.4893 m -59.588,-25.66535 c 35.1487,-49.07055 115.6988,-20.51582 112.8048,34.38393 -1.9092,36.29259 49.9586,25.26689 35.3668,-1.90803 -3.3479,-6.25155 -18.5341,-9.3227 -14.6896,-23.00505 2.6053,-9.2866 18.0223,-25.5414 32.6805,-7.30394 10.3547,12.8788 2.5926,42.68802 8.5216,59.31773 M 663.25316,287.66487 c -14.09716,-12.56426 -18.63426,-39.42932 5.36137,-33.17945 11.96639,3.1217 21.72254,6.4872 27.90014,-6.28224 3.19055,-6.5712 0.24164,-14.35719 -5.06145,-18.89104 -7.73125,-6.62538 -12.46839,-3.05889 -20.66629,1.29569 -14.83657,7.8783 -21.31427,-11.94586 -14.18543,-22.96598 3.74564,-5.79002 13.92499,-3.20754 17.89796,-9.35536 4.52985,-6.9927 -0.20857,-12.94235 -8.04053,-15.24569 -4.87107,-1.44032 -9.77625,2.89663 -14.51706,4.51889 -18.01531,6.16707 -29.00852,-4.94777 -40.57962,-17.73546 -0.0342,0.0855 -0.0407,0.14829 -0.12641,0.24112 m 206.85342,295.82419 c -26.19021,4.33274 -8.33432,-29.68662 -26.1745,-18.02583 -11.09234,7.25023 -30.05162,-15.14638 -10.37864,-24.3233 16.07489,-7.4985 20.57396,-17.84212 20.75838,-29.19388 0.41024,-25.25366 -19.17857,-22.47496 -35.03724,-17.14096 -15.85866,5.334 -26.34988,15.93212 -37.92109,26.53421 m 94.85648,40.29368 c -7.31889,-19.42774 10.36582,-37.84162 18.15509,-22.74872 7.42914,14.39514 26.00664,4.98592 25.43876,-5.64378 -1.35374,-25.33931 -49.51555,-1.6562 -16.95439,-41.76985 m 150.17729,456.74265 c -7.08846,-11.90513 -24.45251,-34.61769 -10.11192,-47.69513 6.325,-5.76789 18.13872,2.49088 14.18792,8.49306 -4.095,6.2212 12.3063,12.56165 14.1056,-8.5699 0.6046,-7.10161 -2.1506,-22.20777 -20.51237,-25.9486 -27.17151,-5.53566 -38.91266,31.30017 -71.13356,41.61483 M 588.28459,630.4374 c -7.13293,-9.15334 -5.68331,-18.20406 -15.16778,-21.0784 -5.53719,-1.67809 -13.03509,8.64418 -18.48376,7.11849 -6.2879,-1.7607 -11.82681,-14.9294 -10.69338,-20.66835 1.19338,-6.04247 12.18223,-8.61837 17.35328,-8.57665 5.04965,0.0407 12.38692,11.13161 27.00655,2.57679 8.83682,-5.17094 2.53419,-15.51837 -14.87636,-22.95851 -36.28793,-15.50704 -57.21843,27.97327 -78.79928,35.21456 m 274.19731,174.21881 c -3.30797,-11.83762 8.41958,-50.62305 -2.6341,-51.35408 -8.49407,-0.56176 -26.65885,8.01806 -31.37646,-0.55442 -10.50253,-19.08434 13.30711,-27.86376 25.21332,-19.19766 11.2767,8.20792 19.54634,-16.17626 27.68275,-24.983 8.32298,-9.00871 15.53014,-19.7698 35.68513,-22.42981 30.59388,-8.14524 9.54611,-25.19288 22.69331,-33.16816 12.58866,-6.77509 22.85553,0.7713 29.17381,12.3717 4.14923,7.60433 5.37665,13.84144 5.15477,24.04613 -0.0852,3.6757 -3.85959,18.2118 -12.62619,27.46247 M 817.88303,292.64318 c -13.0775,-5.29399 -30.2186,-3.92856 -30.47939,14.82258 -0.10711,7.23082 13.73007,21.72844 -0.38523,28.25436 -14.04025,6.49125 -39.62146,-13.58997 -30.80663,-23.44397 10.59773,-11.84708 0.91748,-25.75469 -5.07664,-28.95511 -8.38114,-4.47488 -26.98428,-9.59722 -29.8783,4.22438 -1.88508,9.00304 13.75416,12.21839 4.78702,21.98375 -4.72522,5.14583 -24.91973,-7.74806 -31.08883,-3.44938 m 336.55677,-41.90663 c -12.6889,-5.47897 -15.9993,10.58038 -25.0442,9.06946 -14.02605,-2.34297 -20.11981,-34.00189 4.341,-31.29334 11.8222,1.30895 14.7771,-18.16399 2.1643,-23.91417 -11.8818,-5.41689 -28.8011,-6.3494 -38.74893,-15.64173 m 229.84463,39.8198 c -8.1176,2.0352 -14.3262,15.75495 -25.3985,9.24708 -8.3844,-4.92801 -6.7049,-18.89027 -9.0878,-22.31807 -2.3785,-3.42169 -12.6683,-6.06159 -17.3257,-5.44704 -4.8823,0.64424 -7.657,22.26794 -3.0524,23.92125 11.7865,4.23195 11.6447,18.03366 8.4625,24.80891 -3.1327,6.67014 -13.515,13.25311 -19.3041,5.3895 m -29.059,406.44412 c -20.5915,-21.33683 -48.069,1.58848 -66.0041,-25.07849 m -371.47566,5.83978 c 0.22181,-0.1805 0.63001,-0.44351 0.82799,-0.63916 3.89598,-3.66555 6.33706,-8.38256 9.83266,-12.35603 -7.70491,-5.64439 -15.57324,-8.45967 -24.88854,-11.04237 -20.3427,-36.01091 -70.16328,-23.02175 -88.62434,10.50413 -15.6353,28.40372 -3.6777,48.1934 25.48554,63.14313 4.68365,2.39934 10.42831,8.32526 13.72687,14.1906 0.82748,1.4698 -5.56752,8.93164 -9.10217,10.0679 -4.67759,1.5017 -13.19655,8.36432 -4.28915,11.5785 11.061,0.67832 19.3278,-2.6147 27.91736,-9.54629 0.28696,0.11481 0.49798,0.44579 0.79133,0.5503 0.056,0.02 0.11491,0.0317 0.17809,0.032 l 0.84964,0.26487 c 27.26903,9.2667 55.40748,5.48594 83.9075,11.05489 19.3323,3.77637 39.69876,15.05319 59.93069,17.74036 16.97261,-9.0057 35.53664,-16.3604 54.97241,-15.57179 20.16311,-18.42281 33.75903,-15.06178 48.41246,-10.51193 m -248.22305,-2.67664 c 0.02,-0.0364 0.19047,-0.37285 0.21075,-0.41008 2.05349,-3.77225 5.47901,-12.19703 6.44986,-15.28028 2.79162,-8.87362 4.09296,-16.35028 10.48393,-22.28794 0.56438,-4.63018 -0.40387,-13.76281 6.67492,-14.39542 2.29587,-0.20894 8.10191,4.37655 10.02358,6.32714 2.59429,-2.2492 4.34443,-3.45435 5.93327,-6.92482 1.27764,-2.79095 2.7167,-7.64894 3.98891,-10.75808 m 616.42655,26.38446 c -20.7889,19.19709 -57.7003,31.36153 -52.0273,2.51984 1.4127,-7.18224 7.8259,-28.08143 -0.7392,-24.80138 -20.7437,7.94414 -24.3348,0.53297 -29.5172,-0.0169 -9.7824,-1.038 7.8152,34.45813 -1.6677,39.61044 -8.8723,4.23632 -16.8235,2.7308 -25.4885,7.71467 M 1067.1645,570.35546 c 2.1584,8.55605 0.3025,26.01267 0.635,34.40666 0.1241,2.99841 -0.7794,4.6208 1.5418,6.26939 10.0415,7.1421 12.6617,9.34229 26.3554,2.82042 19.519,-9.30327 19.4033,11.12712 14.2341,21.62425 -6.8989,13.97857 -17.567,14.54756 -25.9569,8.27381 -7.4461,-5.56702 -10.6572,-6.96393 -18.5101,-7.45262 -3.4469,-0.21415 -5.7019,0.71046 -7.6919,2.27212 -14.172,28.63019 -43.6707,47.05511 -79.55528,55.98663 M 1260.0425,548.96997 c -8.7397,-4.35309 -13.2864,-25.2876 -23.9193,-14.1699 -23.5603,24.65517 -33.6188,-12.76457 -1.7977,-17.01862 17.7914,-2.3786 16.7685,-5.53282 10.3808,-18.43624 m -645.14603,10.90201 c 16.28626,-2.27115 38.56665,8.65799 30.87051,27.02579 -3.61395,8.62509 -14.9393,11.72561 -11.79156,19.37737 11.33156,27.54571 37.19824,5.30483 57.36638,10.71702 11.23969,3.02168 12.42018,15.48827 5.30749,20.21558 -5.98755,3.97949 -19.45994,-5.07141 -24.25401,1.45583 -11.39012,15.50786 25.62004,16.2572 13.94334,56.01383 M 1038.9642,413.49597 c -0.1174,-12.71701 12.9547,-22.03052 25.4224,-25.21251 17.7299,-4.52503 5.394,-24.17825 -6.8154,-39.6869 -7.0677,-10.73717 -10.062,-21.29752 -11.2565,-34.29028 -32.7399,-28.87315 -14.2282,-75.88647 23.6451,-88.71751 33.2004,-11.25261 52.3938,9.96608 62.1763,39.4296 1.541,4.66848 3.5246,8.86151 6.3076,12.81898 -2.9675,3.03672 -8.6237,10.35843 -10.4031,13.08516 -5.0664,7.76344 -8.3412,14.78335 -16.0699,18.65251 0.193,-2.24166 1.8773,-6.03266 0.1656,-7.92359 -3.8564,-4.27097 -17.715,-3.31808 -20.5019,1.42692 -1.971,3.355 1.275,6.7629 2.1327,9.67146 -2.8744,1.63602 -4.9689,2.23408 -7.4304,5.17029 -1.9833,2.36275 -4.8171,6.6964 -6.8717,9.38216 l -0.075,0.0925 m -11.0686,36.86317 c 7.5758,-5.68155 2.8149,-14.54186 14.2702,-22.35082 2.1216,-1.44635 0.6396,-9.23876 -3.0419,-14.38423 l -0.1476,-0.20112 c -1.0539,-1.35325 -2.0001,-2.68484 -3.0396,-4.20036 -6.6905,-9.70748 3.2203,-6.86037 1.3265,-12.30196 -4.1505,-11.92413 -6.3649,-19.68554 -8.9872,-31.14783 -4.7782,1.49137 -5.0263,-8.83783 -1.2032,-10.18586 2.7558,-0.97484 4.3477,-13.26224 1.375,-11.53467 -11.8646,6.90025 -17.8183,21.57299 -12.9973,33.40082 2.2631,5.55574 6.73,-1.44342 8.5896,4.94752 2.311,7.93649 1.0796,8.91538 -3.2874,12.342 -7.6968,6.03228 6.5318,23.62851 9.4654,29.08792 l 0.1248,0.26132 m -105.30633,96.80813 c 0.0987,-6.95982 3.06287,-20.82135 -1.47876,-27.39325 -6.98212,-10.1034 -22.8731,-9.81254 -25.33698,5.98497 -0.8881,5.69416 -5.63801,17.04286 -14.53432,15.82451 -8.89632,-1.21836 -10.35705,-12.90415 -10.04091,-19.77075 0.88197,-19.15718 14.23517,-35.74473 29.85188,-36.12246 15.62923,-0.378 29.26295,3.15231 39.17505,-0.0787 12.32824,-4.01862 12.97808,-25.74751 3.11112,-29.42985 -9.21786,-3.44009 -18.51009,-8.05915 -8.87774,-26.05241 5.09455,-9.51659 13.66178,-10.03118 18.78443,-8.82216 16.76236,3.95614 14.77296,41.11572 24.19636,51.34919 16.0418,17.42075 28.739,-2.20905 37.3311,-11.73683 4.8477,-3.07213 9.0738,-6.68605 13.0857,-10.78745"
     sodipodi:nodetypes="cssccsccssssssccssssssccsccssscccssscscsscscccscscsccccssccscccccssccscsccscsccccssssssssssscccccccccccccccccccssssssccssscccccccsssssssssssssssssssscsssccscssscsscsccccccccccccccsccscccccccccccccssscccsssscsssssscccscccccsssscccssssscccsccccccscccssscccscsssssscccsscccscccssssssccccccccssssssssssssssccsscccsssssssccccccccccccsssccccccccccccsccccccssssssssccsssssssssccccssssccscsccsssssscccccccsssssccsssccsssssscccccccccccccscccccccsccccscccccccscccccsccssccccccccccccccsccssssssccc" /></g></svg>
