<?xml version="1.0" encoding="UTF-8" standalone="no"?>
<!-- Created with Inkscape (http://www.inkscape.org/) -->

<svg
   xmlns:dc="http://purl.org/dc/elements/1.1/"
   xmlns:cc="http://creativecommons.org/ns#"
   xmlns:rdf="http://www.w3.org/1999/02/22-rdf-syntax-ns#"
   xmlns:svg="http://www.w3.org/2000/svg"
   xmlns="http://www.w3.org/2000/svg"
   xmlns:sodipodi="http://sodipodi.sourceforge.net/DTD/sodipodi-0.dtd"
   xmlns:inkscape="http://www.inkscape.org/namespaces/inkscape"
   width="1.3916184in"
   height="2.6372817in"
   viewBox="0 0 125.24565 237.35535"
   id="svg4818"
   version="1.1"
   inkscape:version="0.91 r13725"
   sodipodi:docname="LaserMaterialExample.svg">
  <sodipodi:namedview
     id="base"
     pagecolor="#f5ebff"
     bordercolor="#666666"
     borderopacity="1.0"
     inkscape:pageopacity="0"
     inkscape:pageshadow="2"
     inkscape:zoom="5.4212745"
     inkscape:cx="66.039157"
     inkscape:cy="20.346878"
     inkscape:document-units="in"
     inkscape:current-layer="layer1"
     showgrid="false"
     units="in"
     showborder="true"
     gridtolerance="20"
     inkscape:showpageshadow="true"
     borderlayer="false"
     inkscape:window-width="1121"
     inkscape:window-height="965"
     inkscape:window-x="984"
     inkscape:window-y="2"
     inkscape:window-maximized="0"
     fit-margin-top="0"
     fit-margin-left="0"
     fit-margin-right="0"
     fit-margin-bottom="0" />
  <defs
     id="defs4820" />
  <metadata
     id="metadata4823">
    <rdf:RDF>
      <cc:Work
         rdf:about="">
        <dc:format>image/svg+xml</dc:format>
        <dc:type
           rdf:resource="http://purl.org/dc/dcmitype/StillImage" />
        <dc:title />
        <cc:license
           rdf:resource="http://creativecommons.org/publicdomain/zero/1.0/" />
        <dc:creator>
          <cc:Agent>
            <dc:title>Janell Amely @3CatMax</dc:title>
          </cc:Agent>
        </dc:creator>
        <dc:rights>
          <cc:Agent>
            <dc:title>Free to use CC0</dc:title>
          </cc:Agent>
        </dc:rights>
      </cc:Work>
      <cc:License
         rdf:about="http://creativecommons.org/publicdomain/zero/1.0/">
        <cc:permits
           rdf:resource="http://creativecommons.org/ns#Reproduction" />
        <cc:permits
           rdf:resource="http://creativecommons.org/ns#Distribution" />
        <cc:permits
           rdf:resource="http://creativecommons.org/ns#DerivativeWorks" />
      </cc:License>
    </rdf:RDF>
  </metadata>
  <g
     inkscape:label="Layer 1"
     inkscape:groupmode="layer"
     id="layer1"
     transform="translate(-544.41545,-20.229458)">
    <rect
       style="color:#000000;clip-rule:nonzero;display:inline;overflow:visible;visibility:visible;opacity:1;isolation:auto;mix-blend-mode:normal;color-interpolation:sRGB;color-interpolation-filters:linearRGB;solid-color:#000000;solid-opacity:1;fill:none;fill-opacity:1;fill-rule:evenodd;stroke:#6400ff;stroke-width:0.13187842;stroke-linecap:round;stroke-linejoin:round;stroke-miterlimit:4;stroke-dasharray:none;stroke-dashoffset:0;stroke-opacity:1;color-rendering:auto;image-rendering:auto;shape-rendering:auto;text-rendering:auto;enable-background:accumulate"
       id="rect5397"
       width="125.11378"
       height="237.22348"
       x="544.48138"
       y="20.295397" />
    <g
       inkscape:label="Hershey Text"
       transform="matrix(0.68870926,0,0,0.68870926,576.93591,115.08401)"
       id="g5266" />
    <g
       id="g5318"
       transform="matrix(0.70078158,0,0,0.70078158,558.95175,178.20668)"
       inkscape:label="Hershey Text" />
    <path
       id="path3397"
       style="color:#000000;clip-rule:nonzero;display:inline;overflow:visible;visibility:visible;opacity:1;isolation:auto;mix-blend-mode:normal;color-interpolation:sRGB;color-interpolation-filters:linearRGB;solid-color:#000000;solid-opacity:1;fill:none;fill-opacity:1;fill-rule:evenodd;stroke:#640000;stroke-width:0.14311576;stroke-linecap:round;stroke-linejoin:round;stroke-miterlimit:4;stroke-dasharray:none;stroke-dashoffset:0;stroke-opacity:1;color-rendering:auto;image-rendering:auto;shape-rendering:auto;text-rendering:auto;enable-background:accumulate"
       d="m 579.3378,240.38062 q -0.79146,0.34536 -1.43901,0.64757 -0.63317,0.30219 -1.66927,0.63317 -0.87781,0.27341 -1.91391,0.46047 -1.02171,0.20147 -2.25926,0.20147 -2.33123,0 -4.24513,-0.64756 -1.89952,-0.66195 -3.30977,-2.0578 -1.38145,-1.36707 -2.15853,-3.46805 -0.77707,-2.11537 -0.77707,-4.90709 0,-2.64779 0.74829,-4.73438 0.7483,-2.08658 2.15853,-3.52561 1.36708,-1.39585 3.29537,-2.12977 1.9427,-0.73389 4.30269,-0.73389 1.72683,0 3.43927,0.41731 1.72684,0.41732 3.8278,1.46781 l 0,3.38171 -0.21584,0 q -1.77,-1.4822 -3.51122,-2.15855 -1.74123,-0.67633 -3.72708,-0.67633 -1.62611,0 -2.93562,0.53243 -1.29512,0.51805 -2.31683,1.6261 -0.99292,1.07928 -1.55415,2.73415 -0.54683,1.64049 -0.54683,3.79902 0,2.25927 0.60439,3.88538 0.61879,1.6261 1.58294,2.6478 1.00732,1.06488 2.34561,1.58293 1.35268,0.50366 2.84927,0.50366 2.05781,0 3.85659,-0.70512 1.79878,-0.70512 3.36731,-2.11537 l 0.20146,0 0,3.33854 z m 17.16758,1.55415 -2.70537,0 0,-1.7844 q -1.36707,1.07928 -2.61902,1.65489 -1.25195,0.5756 -2.76293,0.5756 -2.53268,0 -3.94293,-1.53975 -1.41025,-1.55416 -1.41025,-4.54732 l 0,-10.43294 2.70538,0 0,9.15221 q 0,1.22317 0.11506,2.10097 0.11507,0.86342 0.48927,1.48221 0.38853,0.63315 1.00731,0.92096 0.61879,0.28781 1.79879,0.28781 1.05048,0 2.28805,-0.54684 1.25195,-0.54681 2.33121,-1.39585 l 0,-12.00147 2.70538,0 0,16.07392 z m 13.67074,-0.1439 q -0.76268,0.20146 -1.66926,0.33096 -0.8922,0.12952 -1.59733,0.12952 -2.46073,0 -3.74146,-1.3239 -1.28073,-1.32391 -1.28073,-4.24513 l 0,-8.5478 -1.82756,0 0,-2.27367 1.82756,0 0,-4.61926 2.70536,0 0,4.61926 5.58342,0 0,2.27367 -5.58342,0 0,7.32463 q 0,1.26635 0.0575,1.98586 0.0575,0.70512 0.40293,1.32391 0.31659,0.5756 0.86342,0.84902 0.56121,0.25902 1.69805,0.25902 0.66195,0 1.38147,-0.18708 0.7195,-0.20146 1.03608,-0.33097 l 0.14391,0 0,2.43196 z m 11.56448,-29.81699 38.55984,0 0,38.55227 -38.55984,0 z"
       inkscape:connector-curvature="0" />
    <path
       id="path4877"
       transform="translate(544.41545,20.229458)"
       style="color:#000000;clip-rule:nonzero;display:inline;overflow:visible;visibility:visible;opacity:1;isolation:auto;mix-blend-mode:normal;color-interpolation:sRGB;color-interpolation-filters:linearRGB;solid-color:#000000;solid-opacity:1;fill:none;fill-opacity:1;fill-rule:evenodd;stroke:#006400;stroke-width:0.14311576;stroke-linecap:round;stroke-linejoin:round;stroke-miterlimit:4;stroke-dasharray:none;stroke-dashoffset:0;stroke-opacity:1;color-rendering:auto;image-rendering:auto;shape-rendering:auto;text-rendering:auto;enable-background:accumulate"
       d="m 59.39594,130.12525 -49.3202,0 0,-44.607508 49.3202,0 m -15.16743,17.138418 -1.37741,-1.37742 -2.06614,-0.6887 -2.75483,0 -2.06612,0.6887 -1.37742,1.37742 0,1.37742 0.6887,1.37742 0.68872,0.68871 1.37742,0.68871 4.13225,1.37741 1.37742,0.68872 0.6887,0.68872 0.68871,1.37741 0,2.06612 -1.37741,1.37742 -2.06614,0.68872 -2.75483,0 -2.06612,-0.68872 -1.37742,-1.37742 m 22.0387,-5.50967 -1.37744,-1.37742 -1.37741,-0.68871 -2.06612,0 -1.37742,0.68871 -1.37742,1.37742 -0.68871,2.06614 0,1.37741 0.68871,2.06612 1.37742,1.37742 1.37742,0.68872 2.06612,0 1.37741,-0.68872 1.37744,-1.37742" />
    <path
       id="path3363"
       transform="translate(544.41545,20.229458)"
       style="color:#000000;clip-rule:nonzero;display:inline;overflow:visible;visibility:visible;opacity:1;isolation:auto;mix-blend-mode:normal;color-interpolation:sRGB;color-interpolation-filters:linearRGB;solid-color:#000000;solid-opacity:1;fill:none;fill-opacity:1;fill-rule:evenodd;stroke:#0064ff;stroke-width:0.14311576;stroke-linecap:round;stroke-linejoin:round;stroke-miterlimit:4;stroke-dasharray:none;stroke-dashoffset:0;stroke-opacity:1;color-rendering:auto;image-rendering:auto;shape-rendering:auto;text-rendering:auto;enable-background:accumulate"
       d="m 59.39594,85.517742 56.17565,0 0,44.607508 -56.17565,0 m 4.80514,-24.71425 -1.37742,0.68871 -1.37742,1.37742 -0.6887,2.06614 0,1.37741 0.6887,2.06612 1.37742,1.37742 1.37742,0.68872 2.06613,0 1.37742,-0.68872 1.37742,-1.37742 0.68871,-2.06612 0,-1.37741 -0.68871,-2.06614 -1.37742,-1.37742 -1.37742,-0.68871 -2.06613,0 m 10.33064,0 0,9.64194 m 8.26452,-5.50967 8.2645,0 0,-1.37744 -0.6887,-1.37741 -0.68872,-0.68871 -1.37741,-0.68871 -2.06614,0 -1.37741,0.68871 -1.37742,1.37742 -0.6887,2.06614 0,1.37741 0.6887,2.06612 1.37742,1.37742 1.37741,0.68872 2.06614,0 1.37741,-0.68872 1.37742,-1.37742 m -16.52902,-3.44353 0.68871,-2.06614 1.37742,-1.37742 1.37742,-0.68871 2.06613,0" />
    <path
       style="color:#000000;clip-rule:nonzero;display:inline;overflow:visible;visibility:visible;opacity:1;isolation:auto;mix-blend-mode:normal;color-interpolation:sRGB;color-interpolation-filters:linearRGB;solid-color:#000000;solid-opacity:1;fill:none;fill-opacity:1;fill-rule:evenodd;stroke:#00ff00;stroke-width:0.14311576;stroke-linecap:round;stroke-linejoin:round;stroke-miterlimit:4;stroke-dasharray:none;stroke-dashoffset:0;stroke-opacity:1;color-rendering:auto;image-rendering:auto;shape-rendering:auto;text-rendering:auto;enable-background:accumulate"
       d="M 32.75663 160.47332 L 32.75663 170.28426 "
       id="path4945"
       transform="translate(544.41545,20.229458)" />
    <path
       style="color:#000000;clip-rule:nonzero;display:inline;overflow:visible;visibility:visible;opacity:1;isolation:auto;mix-blend-mode:normal;color-interpolation:sRGB;color-interpolation-filters:linearRGB;solid-color:#000000;solid-opacity:1;fill:none;fill-opacity:1;fill-rule:evenodd;stroke:#00ff00;stroke-width:0.14311576;stroke-linecap:round;stroke-linejoin:round;stroke-miterlimit:4;stroke-dasharray:none;stroke-dashoffset:0;stroke-opacity:1;color-rendering:auto;image-rendering:auto;shape-rendering:auto;text-rendering:auto;enable-background:accumulate"
       d="M 10.07574 139.26051 L 115.57159 139.26051 L 115.57159 183.86802 L 10.07574 183.86802 L 10.07574 139.26051 L 10.07574 139.26051 "
       id="path4939"
       transform="translate(544.41545,20.229458)" />
    <path
       id="path4937"
       transform="translate(544.41545,20.229458)"
       style="color:#000000;clip-rule:nonzero;display:inline;overflow:visible;visibility:visible;opacity:1;isolation:auto;mix-blend-mode:normal;color-interpolation:sRGB;color-interpolation-filters:linearRGB;solid-color:#000000;solid-opacity:1;fill:none;fill-opacity:1;fill-rule:evenodd;stroke:#00ff00;stroke-width:0.14311576;stroke-linecap:round;stroke-linejoin:round;stroke-miterlimit:4;stroke-dasharray:none;stroke-dashoffset:0;stroke-opacity:1;color-rendering:auto;image-rendering:auto;shape-rendering:auto;text-rendering:auto;enable-background:accumulate"
       d="m 58.472113,183.86802 -48.396373,0 0,-44.60751 48.396373,0 m -41.132693,16.30733 0,10.51172 0.70078,2.10234 1.40157,1.40158 2.10235,0.70078 1.40156,0 2.10234,-0.70078 1.40157,-1.40158 0.70078,-2.10234 0,-10.51172 m 5.60626,7.7086 2.10234,-2.10234 1.40156,-0.70078 2.10234,0 1.40156,0.70078 0.70078,2.10234 0,7.00782 m 14.71643,-12.61408 -1.40157,-1.40156 -2.10235,-0.70078 -2.80313,0 -2.10234,0.70078 -1.40156,1.40156 0,1.40157 0.70078,1.40157 0.70078,0.70078 1.40156,0.70078 4.2047,1.40156 1.40156,0.70078 0.70078,0.70078 0.70079,1.40156 0,2.10234 -1.40157,1.40158 -2.10235,0.70078 -2.80313,0 -2.10234,-0.70078 -1.40156,-1.40158" />
    <path
       id="path3361"
       transform="translate(544.41545,20.229458)"
       style="color:#000000;clip-rule:nonzero;display:inline;overflow:visible;visibility:visible;opacity:1;isolation:auto;mix-blend-mode:normal;color-interpolation:sRGB;color-interpolation-filters:linearRGB;solid-color:#000000;solid-opacity:1;fill:none;fill-opacity:1;fill-rule:evenodd;stroke:#00ffff;stroke-width:0.14311576;stroke-linecap:round;stroke-linejoin:round;stroke-miterlimit:4;stroke-dasharray:none;stroke-dashoffset:0;stroke-opacity:1;color-rendering:auto;image-rendering:auto;shape-rendering:auto;text-rendering:auto;enable-background:accumulate"
       d="m 58.472113,139.26051 57.099477,0 0,44.60751 -57.099477,0 m 9.323587,-21.29236 -1.40156,-1.40156 -1.40156,-0.70078 -2.10234,0 -1.40158,0.70078 -1.40156,1.40156 -0.70078,2.10234 0,1.40156 0.70078,2.10234 1.40156,1.40158 1.40158,0.70078 2.10234,0 1.40156,-0.70078 1.40156,-1.40158 m 7.7086,-7.70858 -1.40156,0.70078 -1.40157,1.40156 -0.70079,2.10234 0,1.40156 0.70079,2.10234 1.40157,1.40158 1.40156,0.70078 2.10234,0 1.40157,-0.70078 1.40156,-1.40158 0.70078,-2.10234 0,-1.40156 -0.70078,-2.10234 -1.40156,-1.40156 -1.40157,-0.70078 -2.10234,0 m 10.51173,4.20468 0.70078,-2.10234 1.40156,-1.40156 1.40156,-0.70078 2.10234,0 m -5.60624,0 0,9.81094 m 8.40938,-5.60626 8.40937,0 0,-1.40156 -0.70078,-1.40156 -0.70079,-0.70078 -1.40156,-0.70078 -2.10234,0 -1.40156,0.70078 -1.40156,1.40156 -0.70078,2.10234 0,1.40156 0.70078,2.10234 1.40156,1.40158 1.40156,0.70078 2.10234,0 1.40156,-0.70078 1.40157,-1.40158" />
    <path
       id="path4857"
       transform="translate(544.41545,20.229458)"
       style="color:#000000;clip-rule:nonzero;display:inline;overflow:visible;visibility:visible;opacity:1;isolation:auto;mix-blend-mode:normal;color-interpolation:sRGB;color-interpolation-filters:linearRGB;solid-color:#000000;solid-opacity:1;fill:#000000;fill-opacity:1;fill-rule:evenodd;stroke:none;stroke-width:0.14311576;stroke-linecap:round;stroke-linejoin:round;stroke-miterlimit:4;stroke-dasharray:none;stroke-dashoffset:0;stroke-opacity:1;color-rendering:auto;image-rendering:auto;shape-rendering:auto;text-rendering:auto;enable-background:accumulate"
       d="m 61.052734,33.058594 -51.6914059,0 0,44.609375 51.6914059,0 0,-44.609375 z m -20.384765,14.720703 10.283203,0 0,1.84375 -8.208984,0 0,4.277344 8.208984,0 0,1.84375 -8.208984,0 0,5.798828 8.208984,0 0,1.84375 -10.283203,0 0,-15.607422 z m 13.46875,0.535156 1.970703,0 0,3.363281 4.068359,0 0,1.658204 -4.068359,0 0,5.335937 c 0,0.614954 0.01537,1.09591 0.04297,1.445313 0.0279,0.342404 0.125278,0.66239 0.292968,0.96289 0.15376,0.279519 0.363347,0.486372 0.628907,0.619141 0.27252,0.125799 0.684258,0.189453 1.236328,0.189453 0.32145,0 0.656459,-0.04584 1.005859,-0.136719 0.3494,-0.09789 0.600176,-0.177335 0.753906,-0.240234 l 0.107422,0 0,1.771484 c -0.37038,0.09789 -0.776557,0.177335 -1.216797,0.240235 -0.43327,0.06283 -0.823595,0.0957 -1.166015,0.0957 -1.19496,0 -2.10267,-0.321939 -2.72461,-0.964844 -0.62194,-0.642905 -0.93164,-1.675173 -0.93164,-3.09375 l 0,-6.224609 -1.332031,0 0,-1.658204 1.332031,0 0,-3.363281 z" />
    <path
       style="color:#000000;clip-rule:nonzero;display:inline;overflow:visible;visibility:visible;opacity:1;isolation:auto;mix-blend-mode:normal;color-interpolation:sRGB;color-interpolation-filters:linearRGB;solid-color:#000000;solid-opacity:1;fill:#0000ff;fill-opacity:1;fill-rule:evenodd;stroke:none;stroke-width:0.14311576;stroke-linecap:round;stroke-linejoin:round;stroke-miterlimit:4;stroke-dasharray:none;stroke-dashoffset:0;stroke-opacity:1;color-rendering:auto;image-rendering:auto;shape-rendering:auto;text-rendering:auto;enable-background:accumulate"
       d="M 61.052734 33.058594 L 61.052734 77.667969 L 114.85547 77.667969 L 114.85547 33.058594 L 61.052734 33.058594 z M 73.759766 47.076172 L 75.730469 47.076172 L 75.730469 52.976562 C 76.345409 52.466426 76.979849 52.069721 77.636719 51.783203 C 78.293589 51.4967 78.968336 51.353516 79.660156 51.353516 C 80.925006 51.353516 81.890828 51.734389 82.554688 52.496094 C 83.218557 53.257799 83.548828 54.354549 83.548828 55.787109 L 83.548828 63.386719 L 81.578125 63.386719 L 81.578125 56.720703 C 81.578125 56.182631 81.545222 55.679139 81.482422 55.210938 C 81.419622 54.735749 81.306402 54.367113 81.138672 54.101562 C 80.963962 53.808076 80.713196 53.588971 80.384766 53.449219 C 80.056326 53.302468 79.629569 53.228516 79.105469 53.228516 C 78.567389 53.228516 78.003006 53.363284 77.416016 53.628906 C 76.829016 53.894443 76.268539 54.234196 75.730469 54.646484 L 75.730469 63.386719 L 73.759766 63.386719 L 73.759766 47.076172 z M 67.470703 51.40625 C 68.141573 51.40625 68.798506 51.50073 69.441406 51.689453 C 70.091296 51.878123 70.684586 52.110291 71.222656 52.382812 L 71.222656 54.570312 L 71.119141 54.570312 C 70.518151 54.10211 69.894863 53.743755 69.251953 53.492188 C 68.616033 53.240617 67.994669 53.115234 67.386719 53.115234 C 66.268629 53.115234 65.384265 53.491373 64.734375 54.246094 C 64.091475 54.993817 63.769551 56.093362 63.769531 57.546875 C 63.769531 58.958468 64.081997 60.048856 64.710938 60.810547 C 65.346858 61.565268 66.240679 61.941406 67.386719 61.941406 C 67.785039 61.941406 68.191216 61.888006 68.603516 61.783203 C 69.015806 61.678443 69.384451 61.542717 69.712891 61.375 C 69.999411 61.228249 70.267961 61.074797 70.519531 60.914062 C 70.771101 60.746345 70.972391 60.601222 71.119141 60.482422 L 71.222656 60.482422 L 71.222656 62.654297 C 70.565786 62.968751 69.939703 63.212018 69.345703 63.386719 C 68.758713 63.561421 68.134573 63.650391 67.470703 63.650391 C 66.625153 63.650391 65.848368 63.527731 65.142578 63.283203 C 64.436788 63.031635 63.831285 62.655496 63.328125 62.152344 C 62.817995 61.649206 62.425994 61.010876 62.146484 60.242188 C 61.866964 59.473497 61.726562 58.574117 61.726562 57.546875 C 61.726562 55.632143 62.248685 54.131157 63.296875 53.041016 C 64.352075 51.950874 65.744663 51.40625 67.470703 51.40625 z "
       id="path3359"
       transform="translate(544.41545,20.229458)" />
    <g
       style="color:#000000;font-style:normal;font-variant:normal;font-weight:normal;font-stretch:normal;font-size:30px;font-family:sans-serif;-inkscape-font-specification:sans-serif;text-align:start;writing-mode:lr-tb;text-anchor:start;clip-rule:nonzero;display:inline;overflow:visible;visibility:visible;opacity:1;isolation:auto;mix-blend-mode:normal;color-interpolation:sRGB;color-interpolation-filters:linearRGB;solid-color:#000000;solid-opacity:1;fill:#000000;fill-opacity:1;fill-rule:evenodd;stroke:none;stroke-width:0.1;stroke-linecap:round;stroke-linejoin:round;stroke-miterlimit:4;stroke-dasharray:none;stroke-dashoffset:0;stroke-opacity:1;color-rendering:auto;image-rendering:auto;shape-rendering:auto;text-rendering:auto;enable-background:accumulate"
       id="text3411"
       transform="translate(165.52075,-73.602459)">
      <path
         id="path3427"
         style="font-size:22.5px;stroke:none"
         d="m 439.86508,119.76712 q -0.58227,0.15381 -1.27441,0.25269 -0.68115,0.0989 -1.21948,0.0989 -1.87867,0 -2.85645,-1.01074 -0.97778,-1.01074 -0.97778,-3.24097 l 0,-6.52588 -1.39527,0 0,-1.73583 1.39527,0 0,-3.52662 2.06543,0 0,3.52662 4.26269,0 0,1.73583 -4.26269,0 0,5.59205 q 0,0.96679 0.0439,1.51611 0.0439,0.53833 0.30762,1.01074 0.2417,0.43945 0.65918,0.64819 0.42847,0.19776 1.29639,0.19776 0.50537,0 1.05468,-0.14282 0.54932,-0.15381 0.79102,-0.25269 l 0.10986,0 0,1.85669 z m -9.66797,0.10986 -10.77758,0 0,-16.35864 10.77758,0 0,1.93359 -8.60229,0 0,4.48243 8.60229,0 0,1.93359 -8.60229,0 0,6.07544 8.60229,0 0,1.93359 z" />
      <path
         id="path3431"
         style="font-size:22.5px;stroke:none;fill:#0000ff"
         d="m 464.36459,119.87698 -2.06543,0 0,-6.9873 q 0,-0.84595 -0.0989,-1.58203 -0.0989,-0.74707 -0.36255,-1.16455 -0.27466,-0.46143 -0.79102,-0.68116 -0.51636,-0.23071 -1.34033,-0.23071 -0.84595,0 -1.7688,0.41748 -0.92285,0.41748 -1.7688,1.06568 l 0,9.16259 -2.06543,0 0,-17.09472 2.06543,0 0,6.1853 q 0.9668,-0.802 1.99951,-1.25244 1.03272,-0.45044 2.12037,-0.45044 1.98852,0 3.03222,1.19751 1.0437,1.19751 1.0437,3.44971 l 0,7.96508 z m -12.91992,-0.76904 q -1.03271,0.49439 -1.96655,0.76904 -0.92285,0.27466 -1.96655,0.27466 -1.32935,0 -2.43897,-0.38452 -1.10962,-0.39551 -1.90063,-1.18652 -0.80201,-0.79102 -1.24146,-1.99951 -0.43945,-1.2085 -0.43945,-2.82349 0,-3.01026 1.64795,-4.72412 1.65893,-1.71387 4.37256,-1.71387 1.05468,0 2.06543,0.29663 1.02172,0.29663 1.86767,0.7251 l 0,2.29614 -0.10986,0 q -0.94483,-0.73608 -1.95557,-1.13159 -0.99975,-0.39551 -1.95556,-0.39551 -1.75782,0 -2.77955,1.18653 -1.01074,1.17553 -1.01074,3.46069 0,2.21924 0.98877,3.41675 0.99976,1.18652 2.80152,1.18652 0.62622,0 1.27441,-0.16479 0.64819,-0.1648 1.16455,-0.42847 0.45044,-0.23071 0.84595,-0.4834 0.39551,-0.26367 0.62622,-0.45044 l 0.10986,0 0,2.27417 z" />
    </g>
  </g>
</svg>
